<?xml version="1.0" encoding="UTF-8"?>
<svg id="Layer_2" data-name="Layer 2" xmlns="http://www.w3.org/2000/svg" xmlns:xlink="http://www.w3.org/1999/xlink" viewBox="0 0 10290.3 2590.16">
  <defs>
    <style>
      .cls-1 {
        fill: #fff;
      }

      .cls-2 {
        fill: url(#linear-gradient);
      }
    </style>
    <linearGradient id="linear-gradient" x1="748.54" y1="616.92" x2="748.54" y2="1860.85" gradientUnits="userSpaceOnUse">
      <stop offset="0" stop-color="#50c5d4"/>
      <stop offset="1" stop-color="#287fc1"/>
    </linearGradient>
  </defs>
  <g id="Layer_1-2" data-name="Layer 1">
    <g>
      <path class="cls-1" d="M2083.04,65.25h303.56v1985.88h-303.56V65.25Z"/>
      <path class="cls-1" d="M3958.24,798.61c45.39,82.27,68.09,178.26,68.09,287.95v964.57h-286.53v-873.79c0-119.15-33.57-213.72-100.71-283.7-67.14-69.98-157.45-104.97-270.93-104.97-126.72,0-227.43,45.86-302.14,137.59-74.71,91.73-112.06,214.19-112.06,367.39v757.47h-289.37V587.25h275.19l14.18,431.22h17.02c18.91-143.74,76.6-259.11,173.06-346.11,96.46-87,213.72-130.5,351.78-130.5,102.13,0,193.39,22.22,273.77,66.67,80.38,44.45,143.27,107.81,188.66,190.08Z"/>
      <path class="cls-1" d="M5490.22,2051.13h-286.53V783h-522v1268.13h-286.53V783h-241.14v-195.75h241.14v-110.64c0-134.28,40.19-241.62,120.57-322,80.38-80.38,202.84-120.57,367.39-120.57h607.11l-2.84,246.82h-584.42c-79.44,0-137.59,17.97-174.47,53.9-36.88,35.94-55.32,89.84-55.32,161.71v90.78h817.05v1463.88Z"/>
      <path class="cls-1" d="M7042.02,798.61c45.39,82.27,68.09,178.26,68.09,287.95v964.57h-286.53v-873.79c0-119.15-33.57-213.72-100.71-283.7s-157.45-104.97-270.93-104.97c-126.72,0-227.43,45.86-302.14,137.59-74.71,91.73-112.06,214.19-112.06,367.39v757.47h-289.37V587.25h275.19l14.18,431.22h17.02c18.91-143.74,76.6-259.11,173.06-346.11s213.72-130.5,351.78-130.5c102.13,0,193.39,22.22,273.77,66.67,80.38,44.45,143.27,107.81,188.66,190.08Z"/>
      <path class="cls-1" d="M7368.26,181.57c0-49.17,17.49-91.73,52.48-127.66,34.99-35.94,77.07-53.9,126.25-53.9s94.09,17.5,129.08,52.48,52.48,78.02,52.48,129.08-17.49,91.26-52.48,126.25c-34.99,34.99-78.02,52.48-129.08,52.48s-91.25-17.5-126.25-52.48c-34.99-34.99-52.48-77.07-52.48-126.25Zm36.88,405.69h286.53v1463.88h-286.53V587.25Z"/>
      <path class="cls-1" d="M8406.57,783v856.77c0,75.65,15.6,125.77,46.81,150.36s87.47,36.88,168.8,36.88c52.96,0,116.32-2.84,190.08-8.51v238.31c-73.76,5.67-140.9,8.51-201.43,8.51-124.83,0-221.76-9.93-290.79-29.79-69.03-19.86-119.62-58.16-151.78-114.9-32.15-56.74-48.23-139.01-48.23-246.82V783h-249.65v-195.75h249.65V204.26h275.19l8.51,382.99h408.52v195.75h-405.69Z"/>
      <path class="cls-1" d="M9754.12,1222.74l113.48-312.07,113.48-323.42h309.23l-590.09,1489.41c-54.85,134.28-112.53,238.31-173.06,312.07-60.52,73.76-131.92,125.77-214.19,156.03-82.27,30.26-186.77,45.39-313.49,45.39-45.39,0-79.44-.95-102.13-2.84v-246.82c24.59,1.89,58.63,2.84,102.13,2.84,69.98,0,125.3-6.62,165.96-19.86,40.66-13.24,76.13-37.35,106.39-72.34,30.26-34.99,60.52-86.53,90.78-154.62l22.7-51.07-550.37-1458.2h314.9l113.48,331.93,34.04,99.29c115.37,332.87,198.59,580.63,249.65,743.29h14.18c49.18-151.3,113.48-330.98,192.91-539.03Z"/>
    </g>
    <path class="cls-2" d="M213.36,2121.22c-90.82,.16-159.48-44.08-193.4-124.59-10.22-24.26-15.45-49.67-15.52-75.5-.14-53.87,22.47-106.36,63.68-147.83C380.05,1459.53,1132.22,703.38,1132.22,703.38c50.88-51.13,78.79-115.99,78.61-182.64-.16-61.47-24.78-119.91-69.32-164.59-46.79-46.88-107.39-70.55-180.07-70.36-.19,0-468.58,1.25-554.83,1.56-3.04,0-6.04,.14-9.37,.36l494.36,489.64-202.15,200.3-184.93-183.73C357.95,648.39,206.66,498.15,58.58,349.56,20.94,311.82,.14,261.77,0,208.65-.2,131.97,41.87,63.41,109.81,29.76c27.34-13.54,60.7-21.43,91.57-21.7,169.54-1.47,318.03-2.39,454.92-2.75,113.96-.3,219.87-.23,323.22,.2,205.53,.85,395.69,128.92,473.19,318.74,26.19,64.17,39.54,131.32,39.73,199.62,.37,139.38-54.07,271.14-153.26,371.01-211.03,212.44-422.24,424.72-633.45,637l-297.45,299.02c-2.8,2.84-5.56,5.72-8.7,9.08,54.33-.14,275.68-.07,332.72-.22,81.3-.22,163.25-.77,244.43-2.13,106.45-1.76,182.53-54.21,219.99-151.64,12.07-31.34,18.15-62.29,18.07-91.99-.16-60.93-25.96-118.02-76.68-169.69-15.59-15.9-31.64-31.41-47.25-46.42l-31.37-30.18,198.97-198.38,29.9,25.25c134.15,113.36,208.27,263.35,208.72,422.33,.53,200.26-115,384.96-294.33,470.53-71.54,34.14-146.8,51.58-223.71,51.8l-397.37,1.14-368.31,.85Z"/>
  </g>
</svg>